<?xml version="1.0" standalone="no"?>
<!DOCTYPE svg PUBLIC "-//W3C//DTD SVG 20010904//EN"
 "http://www.w3.org/TR/2001/REC-SVG-20010904/DTD/svg10.dtd">
<svg version="1.0" xmlns="http://www.w3.org/2000/svg"
 width="48.000000pt" height="48.000000pt" viewBox="0 0 48.000000 48.000000"
 preserveAspectRatio="xMidYMid meet">

<g transform="translate(0.000000,48.000000) scale(0.100000,-0.100000)"
fill="#000000" stroke="none">
<path d="M197 434 c-4 -4 -7 -15 -7 -25 0 -24 -40 -47 -75 -42 -27 4 -33 0
-49 -33 -16 -35 -16 -39 -2 -50 21 -15 21 -73 0 -88 -14 -11 -14 -15 2 -50 17
-34 22 -37 49 -33 35 6 71 -17 77 -48 3 -16 11 -20 48 -20 37 0 45 4 48 20 6
31 42 54 77 48 27 -4 32 -1 49 33 16 35 16 39 2 50 -21 15 -21 73 0 88 14 11
14 15 -2 50 -17 34 -22 37 -49 33 -35 -6 -71 17 -77 48 -2 15 -12 21 -43 23
-23 2 -44 0 -48 -4z m98 -139 c33 -32 33 -78 0 -110 -49 -50 -135 -15 -135 55
0 19 9 40 25 55 15 16 36 25 55 25 19 0 40 -9 55 -25z"/>
</g>
</svg>
