<?xml version="1.0" standalone="no"?>
<!DOCTYPE svg PUBLIC "-//W3C//DTD SVG 20010904//EN"
 "http://www.w3.org/TR/2001/REC-SVG-20010904/DTD/svg10.dtd">
<svg version="1.0" xmlns="http://www.w3.org/2000/svg"
 width="48.000000pt" height="48.000000pt" viewBox="0 0 48.000000 48.000000"
 preserveAspectRatio="xMidYMid meet">

<g transform="translate(0.000000,48.000000) scale(0.100000,-0.100000)"
fill="#000000" stroke="none">
<path d="M227 414 c-4 -4 -7 -40 -7 -80 l0 -73 -77 -3 c-61 -2 -78 -6 -78 -18
0 -12 17 -16 77 -18 l77 -3 3 -77 c2 -60 6 -77 18 -77 12 0 16 17 18 77 l3 77
77 3 c60 2 77 6 77 18 0 12 -17 16 -77 18 l-77 3 -3 76 c-3 70 -13 95 -31 77z"/>
</g>
</svg>
