<?xml version="1.0" encoding="utf-8"?><!-- Uploaded to: SVG Repo, www.svgrepo.com, Generator: SVG Repo Mixer Tools -->
<svg width="800px" height="800px" viewBox="0 0 24 24" fill="none" xmlns="http://www.w3.org/2000/svg">
<path fill-rule="evenodd" clip-rule="evenodd" d="M3.5 3C3.5 1.89543 4.39543 1 5.5 1H18.5C19.6046 1 20.5 1.89543 20.5 3V22C20.5 22.3612 20.3052 22.6944 19.9904 22.8715C19.6756 23.0486 19.2897 23.0422 18.981 22.8548L12 18.6157L5.01903 22.8548C4.71028 23.0422 4.32441 23.0486 4.00961 22.8715C3.6948 22.6944 3.5 22.3612 3.5 22V3ZM18.5 3L5.5 3V20.2228L11.481 16.591C11.7999 16.3974 12.2001 16.3974 12.519 16.591L18.5 20.2228V3Z" fill="#000000"/>
</svg>