<?xml version="1.0" encoding="UTF-8"?>
<!DOCTYPE svg PUBLIC "-//W3C//DTD SVG 1.1//EN" "http://www.w3.org/Graphics/SVG/1.1/DTD/svg11.dtd">
<svg xmlns="http://www.w3.org/2000/svg" version="1.1" width="48px" height="48px" style="shape-rendering:geometricPrecision; text-rendering:geometricPrecision; image-rendering:optimizeQuality; fill-rule:evenodd; clip-rule:evenodd" xmlns:xlink="http://www.w3.org/1999/xlink">
<g><path style="opacity:0.924" fill="#636363" d="M 13.5,19.5 C 13.5,20.8333 14.1667,21.5 15.5,21.5C 16.5,26.5 14.5,28.5 9.5,27.5C 9.5,26.1667 8.83333,25.5 7.5,25.5C 6.5,20.5 8.5,18.5 13.5,19.5 Z"/></g>
<g><path style="opacity:0.4" fill="#616161" d="M 13.5,19.5 C 14.5,19.8333 15.1667,20.5 15.5,21.5C 14.1667,21.5 13.5,20.8333 13.5,19.5 Z"/></g>
<g><path style="opacity:0.924" fill="#636363" d="M 25.5,19.5 C 25.5,20.8333 26.1667,21.5 27.5,21.5C 28.5,26.5 26.5,28.5 21.5,27.5C 21.5,26.1667 20.8333,25.5 19.5,25.5C 18.5,20.5 20.5,18.5 25.5,19.5 Z"/></g>
<g><path style="opacity:0.4" fill="#616161" d="M 25.5,19.5 C 26.5,19.8333 27.1667,20.5 27.5,21.5C 26.1667,21.5 25.5,20.8333 25.5,19.5 Z"/></g>
<g><path style="opacity:0.924" fill="#636363" d="M 37.5,19.5 C 37.5,20.8333 38.1667,21.5 39.5,21.5C 40.5,26.5 38.5,28.5 33.5,27.5C 33.5,26.1667 32.8333,25.5 31.5,25.5C 30.5,20.5 32.5,18.5 37.5,19.5 Z"/></g>
<g><path style="opacity:0.4" fill="#616161" d="M 37.5,19.5 C 38.5,19.8333 39.1667,20.5 39.5,21.5C 38.1667,21.5 37.5,20.8333 37.5,19.5 Z"/></g>
<g><path style="opacity:0.4" fill="#616161" d="M 7.5,25.5 C 8.83333,25.5 9.5,26.1667 9.5,27.5C 8.5,27.1667 7.83333,26.5 7.5,25.5 Z"/></g>
<g><path style="opacity:0.4" fill="#616161" d="M 19.5,25.5 C 20.8333,25.5 21.5,26.1667 21.5,27.5C 20.5,27.1667 19.8333,26.5 19.5,25.5 Z"/></g>
<g><path style="opacity:0.4" fill="#616161" d="M 31.5,25.5 C 32.8333,25.5 33.5,26.1667 33.5,27.5C 32.5,27.1667 31.8333,26.5 31.5,25.5 Z"/></g>
</svg>
