<?xml version="1.0" standalone="no"?>
<!DOCTYPE svg PUBLIC "-//W3C//DTD SVG 20010904//EN"
 "http://www.w3.org/TR/2001/REC-SVG-20010904/DTD/svg10.dtd">
<svg version="1.0" xmlns="http://www.w3.org/2000/svg"
 width="48.000000pt" height="48.000000pt" viewBox="0 0 48.000000 48.000000"
 preserveAspectRatio="xMidYMid meet">

<g transform="translate(0.000000,48.000000) scale(0.100000,-0.100000)"
fill="#000000" stroke="none">
<path d="M207 440 c-17 -13 -40 -20 -70 -20 -74 0 -77 -8 -77 -180 0 -122 3
-151 16 -164 23 -23 305 -23 328 0 13 13 16 42 16 164 0 172 -3 180 -77 180
-30 0 -53 7 -70 20 -14 11 -29 20 -33 20 -4 0 -19 -9 -33 -20z m53 -40 c0 -13
-7 -20 -20 -20 -13 0 -20 7 -20 20 0 13 7 20 20 20 13 0 20 -7 20 -20z m80
-117 c0 -21 -99 -123 -119 -123 -21 0 -81 60 -81 82 0 25 29 23 57 -4 l24 -22
42 42 c43 44 77 55 77 25z"/>
</g>
</svg>
